<?xml version="1.0" encoding="UTF-8"?>
<svg width="1200" height="600" viewBox="0 0 1200 600" fill="none" xmlns="http://www.w3.org/2000/svg">
  <defs>
    <linearGradient id="g1" x1="0" y1="0" x2="1" y2="1">
      <stop offset="0%" stop-color="#22c55e"/>
      <stop offset="50%" stop-color="#06b6d4"/>
      <stop offset="100%" stop-color="#6366f1"/>
    </linearGradient>
    <linearGradient id="g2" x1="0" y1="0" x2="0" y2="1">
      <stop offset="0%" stop-color="#0ea5e9" stop-opacity="0.15"/>
      <stop offset="100%" stop-color="#8b5cf6" stop-opacity="0.15"/>
    </linearGradient>
    <filter id="blur1" x="-20%" y="-20%" width="140%" height="140%">
      <feGaussianBlur stdDeviation="50"/>
    </filter>
  </defs>
  <rect width="1200" height="600" rx="28" fill="url(#g2)"/>
  <g filter="url(#blur1)">
    <circle cx="250" cy="150" r="140" fill="#22c55e" fill-opacity="0.25"/>
    <circle cx="980" cy="120" r="120" fill="#06b6d4" fill-opacity="0.25"/>
    <circle cx="950" cy="480" r="160" fill="#6366f1" fill-opacity="0.25"/>
  </g>
  <rect x="140" y="160" width="920" height="320" rx="18" fill="#0b1220" fill-opacity="0.85" stroke="url(#g1)" stroke-opacity="0.4"/>
  <g transform="translate(180,200)">
    <rect x="0" y="0" width="360" height="200" rx="10" fill="#0f172a" stroke="#334155" stroke-opacity="0.6"/>
    <g transform="translate(16,16)">
      <rect x="0" y="0" width="80" height="16" rx="8" fill="#22c55e" fill-opacity="0.4"/>
      <rect x="0" y="28" width="300" height="10" rx="5" fill="#334155"/>
      <rect x="0" y="48" width="260" height="10" rx="5" fill="#334155"/>
      <rect x="0" y="68" width="320" height="10" rx="5" fill="#334155"/>
    </g>
  </g>
  <g transform="translate(580,200)">
    <rect x="0" y="0" width="440" height="200" rx="10" fill="#0f172a" stroke="#334155" stroke-opacity="0.6"/>
    <g transform="translate(16,16)">
      <rect x="0" y="0" width="120" height="16" rx="8" fill="#06b6d4" fill-opacity="0.4"/>
      <rect x="0" y="32" width="400" height="120" rx="8" fill="#111827"/>
      <rect x="20" y="52" width="100" height="8" rx="4" fill="#334155"/>
      <rect x="20" y="72" width="180" height="8" rx="4" fill="#334155"/>
      <rect x="20" y="92" width="220" height="8" rx="4" fill="#334155"/>
    </g>
  </g>
  <g transform="translate(140,120)">
    <rect x="0" y="0" width="140" height="28" rx="14" fill="url(#g1)"/>
  </g>
</svg>
